<svg width="33" height="38" viewBox="0 0 33 38" fill="none" xmlns="http://www.w3.org/2000/svg">
<path d="M12.6405 8.3093H22.8531V18.0237V27.7381H20.5283C20.5283 27.7381 22.8531 27.4475 21.8567 20.5976C20.8604 13.7477 12.6405 8.3093 12.6405 8.3093Z" fill="url(#paint0_linear_2_37)"/>
<path d="M13.8029 12.4608H24.0155V22.1752V31.8896H21.6907C21.6907 31.8896 24.0155 31.599 23.0192 24.7491C22.0228 17.8992 13.8029 12.4608 13.8029 12.4608Z" fill="url(#paint1_linear_2_37)"/>
<g filter="url(#filter0_d_2_37)">
<path d="M13.8029 5.90146H24.0155V15.6159V25.3303H21.6907C21.6907 25.3303 24.0155 25.0397 23.0192 18.1898C22.0228 11.3399 13.8029 5.90146 13.8029 5.90146Z" fill="url(#paint2_linear_2_37)" shape-rendering="crispEdges"/>
</g>
<g filter="url(#filter1_d_2_37)">
<path d="M14.9653 10.0529H25.1779V19.7673V29.4817H22.8531C22.8531 29.4817 25.1779 29.1911 24.1816 22.3412C23.1852 15.4913 14.9653 10.0529 14.9653 10.0529Z" fill="url(#paint3_linear_2_37)" shape-rendering="crispEdges"/>
</g>
<g filter="url(#filter2_d_2_37)">
<path d="M15.1314 3.74271H25.344V13.4571V23.1715H23.0192C23.0192 23.1715 25.344 22.8809 24.3476 16.031C23.3513 9.18112 15.1314 3.74271 15.1314 3.74271Z" fill="url(#paint4_linear_2_37)" shape-rendering="crispEdges"/>
</g>
<g filter="url(#filter3_d_2_37)">
<path d="M16.2938 7.89417H26.5064V17.6086V27.323H24.1816C24.1816 27.323 26.5064 27.0324 25.51 20.1825C24.5137 13.3326 16.2938 7.89417 16.2938 7.89417Z" fill="url(#paint5_linear_2_37)" shape-rendering="crispEdges"/>
</g>
<g filter="url(#filter4_d_2_37)">
<path d="M16.875 1.75H27.0876V11.4644V21.1788H24.7628C24.7628 21.1788 27.0876 20.8882 26.0912 14.0383C25.0949 7.18841 16.875 1.75 16.875 1.75Z" fill="url(#paint6_linear_2_37)" shape-rendering="crispEdges"/>
</g>
<g filter="url(#filter5_d_2_37)">
<path d="M18.0374 5.90146H28.25V15.6159V25.3303H25.9252C25.9252 25.3303 28.25 25.0397 27.2537 18.1898C26.2573 11.3399 18.0374 5.90146 18.0374 5.90146Z" fill="url(#paint7_linear_2_37)" shape-rendering="crispEdges"/>
</g>
<path d="M6.799 21.338C6.879 21.512 6.939 21.633 6.979 21.701C7.021 21.769 7.059 21.813 7.093 21.833V21.851C7.069 21.861 7.044 21.866 7.018 21.866C6.99 21.866 6.965 21.856 6.943 21.836C6.921 21.816 6.891 21.773 6.853 21.707C6.817 21.639 6.767 21.534 6.703 21.392C6.629 21.226 6.565 21.105 6.511 21.029C6.457 20.951 6.393 20.893 6.319 20.855C6.271 20.859 6.235 20.861 6.211 20.861H5.878V21.761C5.878 21.831 5.853 21.866 5.803 21.866C5.791 21.866 5.778 21.862 5.764 21.854V20.312C5.764 20.178 5.758 20.071 5.746 19.991C5.736 19.911 5.716 19.841 5.686 19.781L5.704 19.742C5.784 19.742 5.866 19.739 5.95 19.733C5.976 19.731 6.015 19.729 6.067 19.727C6.121 19.725 6.169 19.724 6.211 19.724C6.435 19.724 6.613 19.775 6.745 19.877C6.879 19.977 6.946 20.113 6.946 20.285C6.946 20.425 6.903 20.543 6.817 20.639C6.731 20.735 6.612 20.8 6.46 20.834C6.518 20.868 6.571 20.922 6.619 20.996C6.669 21.07 6.729 21.184 6.799 21.338ZM5.821 19.838C5.859 19.938 5.878 20.096 5.878 20.312V20.768H6.259C6.433 20.768 6.571 20.725 6.673 20.639C6.777 20.551 6.829 20.433 6.829 20.285C6.829 20.143 6.777 20.03 6.673 19.946C6.571 19.862 6.433 19.82 6.259 19.82C6.207 19.82 6.158 19.821 6.112 19.823C6.066 19.825 6.026 19.827 5.992 19.829C5.928 19.835 5.871 19.838 5.821 19.838ZM9.29992 21.884C9.15792 21.884 9.04492 21.842 8.96092 21.758C8.87692 21.674 8.83492 21.561 8.83492 21.419C8.83492 21.273 8.88192 21.158 8.97592 21.074C9.07192 20.988 9.19992 20.945 9.35992 20.945C9.45192 20.945 9.53392 20.958 9.60592 20.984C9.67792 21.01 9.73592 21.046 9.77992 21.092V20.864C9.77992 20.718 9.74092 20.602 9.66292 20.516C9.58692 20.428 9.48392 20.384 9.35392 20.384C9.20192 20.384 9.06492 20.448 8.94292 20.576C8.90292 20.576 8.88292 20.558 8.88292 20.522C8.88292 20.5 8.90492 20.471 8.94892 20.435C8.99492 20.397 9.05492 20.364 9.12892 20.336C9.20292 20.308 9.28192 20.294 9.36592 20.294C9.52392 20.294 9.65092 20.346 9.74692 20.45C9.84292 20.554 9.89092 20.692 9.89092 20.864V21.761C9.89092 21.831 9.86692 21.866 9.81892 21.866C9.80692 21.866 9.79392 21.862 9.77992 21.854V21.662C9.72392 21.73 9.65392 21.784 9.56992 21.824C9.48592 21.864 9.39592 21.884 9.29992 21.884ZM9.28792 21.794C9.36792 21.794 9.44592 21.778 9.52192 21.746C9.59792 21.712 9.65992 21.665 9.70792 21.605C9.75592 21.545 9.77992 21.476 9.77992 21.398V21.299C9.77992 21.213 9.73692 21.148 9.65092 21.104C9.56692 21.058 9.46492 21.035 9.34492 21.035C9.22292 21.035 9.12592 21.07 9.05392 21.14C8.98392 21.21 8.94892 21.304 8.94892 21.422C8.94892 21.536 8.97892 21.627 9.03892 21.695C9.10092 21.761 9.18392 21.794 9.28792 21.794ZM12.3114 21.884C12.1294 21.884 11.9844 21.817 11.8764 21.683C11.7704 21.549 11.7174 21.364 11.7174 21.128C11.7174 20.962 11.7444 20.816 11.7984 20.69C11.8524 20.564 11.9284 20.467 12.0264 20.399C12.1264 20.329 12.2434 20.294 12.3774 20.294C12.4794 20.294 12.5694 20.314 12.6474 20.354C12.7254 20.392 12.7904 20.443 12.8424 20.507V19.787C12.8424 19.717 12.8664 19.682 12.9144 19.682C12.9264 19.682 12.9394 19.686 12.9534 19.694V21.761C12.9534 21.831 12.9294 21.866 12.8814 21.866C12.8694 21.866 12.8564 21.862 12.8424 21.854V21.566C12.7844 21.666 12.7104 21.744 12.6204 21.8C12.5304 21.856 12.4274 21.884 12.3114 21.884ZM12.3114 21.794C12.4134 21.794 12.5044 21.768 12.5844 21.716C12.6664 21.662 12.7294 21.589 12.7734 21.497C12.8194 21.403 12.8424 21.297 12.8424 21.179V20.831C12.8424 20.695 12.7974 20.587 12.7074 20.507C12.6194 20.425 12.5094 20.384 12.3774 20.384C12.2074 20.384 12.0734 20.452 11.9754 20.588C11.8794 20.722 11.8314 20.902 11.8314 21.128C11.8314 21.338 11.8734 21.502 11.9574 21.62C12.0414 21.736 12.1594 21.794 12.3114 21.794ZM14.9762 21.866C14.9642 21.866 14.9512 21.862 14.9372 21.854V19.787C14.9372 19.717 14.9612 19.682 15.0092 19.682C15.0212 19.682 15.0342 19.686 15.0482 19.694V20.63C15.0902 20.53 15.1532 20.449 15.2372 20.387C15.3212 20.325 15.4212 20.294 15.5372 20.294C15.6912 20.294 15.8132 20.344 15.9032 20.444C15.9952 20.544 16.0412 20.679 16.0412 20.849V21.761C16.0412 21.831 16.0172 21.866 15.9692 21.866C15.9572 21.866 15.9442 21.862 15.9302 21.854V20.849C15.9302 20.707 15.8942 20.595 15.8222 20.513C15.7522 20.429 15.6572 20.387 15.5372 20.387C15.4392 20.387 15.3532 20.416 15.2792 20.474C15.2052 20.53 15.1482 20.609 15.1082 20.711C15.0682 20.813 15.0482 20.931 15.0482 21.065V21.761C15.0482 21.831 15.0242 21.866 14.9762 21.866ZM18.3625 21.884C18.2205 21.884 18.1075 21.842 18.0235 21.758C17.9395 21.674 17.8975 21.561 17.8975 21.419C17.8975 21.273 17.9445 21.158 18.0385 21.074C18.1345 20.988 18.2625 20.945 18.4225 20.945C18.5145 20.945 18.5965 20.958 18.6685 20.984C18.7405 21.01 18.7985 21.046 18.8425 21.092V20.864C18.8425 20.718 18.8035 20.602 18.7255 20.516C18.6495 20.428 18.5465 20.384 18.4165 20.384C18.2645 20.384 18.1275 20.448 18.0055 20.576C17.9655 20.576 17.9455 20.558 17.9455 20.522C17.9455 20.5 17.9675 20.471 18.0115 20.435C18.0575 20.397 18.1175 20.364 18.1915 20.336C18.2655 20.308 18.3445 20.294 18.4285 20.294C18.5865 20.294 18.7135 20.346 18.8095 20.45C18.9055 20.554 18.9535 20.692 18.9535 20.864V21.761C18.9535 21.831 18.9295 21.866 18.8815 21.866C18.8695 21.866 18.8565 21.862 18.8425 21.854V21.662C18.7865 21.73 18.7165 21.784 18.6325 21.824C18.5485 21.864 18.4585 21.884 18.3625 21.884ZM18.3505 21.794C18.4305 21.794 18.5085 21.778 18.5845 21.746C18.6605 21.712 18.7225 21.665 18.7705 21.605C18.8185 21.545 18.8425 21.476 18.8425 21.398V21.299C18.8425 21.213 18.7995 21.148 18.7135 21.104C18.6295 21.058 18.5275 21.035 18.4075 21.035C18.2855 21.035 18.1885 21.07 18.1165 21.14C18.0465 21.21 18.0115 21.304 18.0115 21.422C18.0115 21.536 18.0415 21.627 18.1015 21.695C18.1635 21.761 18.2465 21.794 18.3505 21.794Z" fill="#E06529"/>
<defs>
<filter id="filter0_d_2_37" x="9.80292" y="5.90146" width="18.2126" height="27.4288" filterUnits="userSpaceOnUse" color-interpolation-filters="sRGB">
<feFlood flood-opacity="0" result="BackgroundImageFix"/>
<feColorMatrix in="SourceAlpha" type="matrix" values="0 0 0 0 0 0 0 0 0 0 0 0 0 0 0 0 0 0 127 0" result="hardAlpha"/>
<feOffset dy="4"/>
<feGaussianBlur stdDeviation="2"/>
<feComposite in2="hardAlpha" operator="out"/>
<feColorMatrix type="matrix" values="0 0 0 0 0 0 0 0 0 0 0 0 0 0 0 0 0 0 0.25 0"/>
<feBlend mode="normal" in2="BackgroundImageFix" result="effect1_dropShadow_2_37"/>
<feBlend mode="normal" in="SourceGraphic" in2="effect1_dropShadow_2_37" result="shape"/>
</filter>
<filter id="filter1_d_2_37" x="10.9653" y="10.0529" width="18.2126" height="27.4288" filterUnits="userSpaceOnUse" color-interpolation-filters="sRGB">
<feFlood flood-opacity="0" result="BackgroundImageFix"/>
<feColorMatrix in="SourceAlpha" type="matrix" values="0 0 0 0 0 0 0 0 0 0 0 0 0 0 0 0 0 0 127 0" result="hardAlpha"/>
<feOffset dy="4"/>
<feGaussianBlur stdDeviation="2"/>
<feComposite in2="hardAlpha" operator="out"/>
<feColorMatrix type="matrix" values="0 0 0 0 0 0 0 0 0 0 0 0 0 0 0 0 0 0 0.25 0"/>
<feBlend mode="normal" in2="BackgroundImageFix" result="effect1_dropShadow_2_37"/>
<feBlend mode="normal" in="SourceGraphic" in2="effect1_dropShadow_2_37" result="shape"/>
</filter>
<filter id="filter2_d_2_37" x="11.1314" y="3.74271" width="18.2126" height="27.4288" filterUnits="userSpaceOnUse" color-interpolation-filters="sRGB">
<feFlood flood-opacity="0" result="BackgroundImageFix"/>
<feColorMatrix in="SourceAlpha" type="matrix" values="0 0 0 0 0 0 0 0 0 0 0 0 0 0 0 0 0 0 127 0" result="hardAlpha"/>
<feOffset dy="4"/>
<feGaussianBlur stdDeviation="2"/>
<feComposite in2="hardAlpha" operator="out"/>
<feColorMatrix type="matrix" values="0 0 0 0 0 0 0 0 0 0 0 0 0 0 0 0 0 0 0.25 0"/>
<feBlend mode="normal" in2="BackgroundImageFix" result="effect1_dropShadow_2_37"/>
<feBlend mode="normal" in="SourceGraphic" in2="effect1_dropShadow_2_37" result="shape"/>
</filter>
<filter id="filter3_d_2_37" x="12.2938" y="7.89417" width="18.2126" height="27.4288" filterUnits="userSpaceOnUse" color-interpolation-filters="sRGB">
<feFlood flood-opacity="0" result="BackgroundImageFix"/>
<feColorMatrix in="SourceAlpha" type="matrix" values="0 0 0 0 0 0 0 0 0 0 0 0 0 0 0 0 0 0 127 0" result="hardAlpha"/>
<feOffset dy="4"/>
<feGaussianBlur stdDeviation="2"/>
<feComposite in2="hardAlpha" operator="out"/>
<feColorMatrix type="matrix" values="0 0 0 0 0 0 0 0 0 0 0 0 0 0 0 0 0 0 0.25 0"/>
<feBlend mode="normal" in2="BackgroundImageFix" result="effect1_dropShadow_2_37"/>
<feBlend mode="normal" in="SourceGraphic" in2="effect1_dropShadow_2_37" result="shape"/>
</filter>
<filter id="filter4_d_2_37" x="12.875" y="1.75" width="18.2126" height="27.4288" filterUnits="userSpaceOnUse" color-interpolation-filters="sRGB">
<feFlood flood-opacity="0" result="BackgroundImageFix"/>
<feColorMatrix in="SourceAlpha" type="matrix" values="0 0 0 0 0 0 0 0 0 0 0 0 0 0 0 0 0 0 127 0" result="hardAlpha"/>
<feOffset dy="4"/>
<feGaussianBlur stdDeviation="2"/>
<feComposite in2="hardAlpha" operator="out"/>
<feColorMatrix type="matrix" values="0 0 0 0 0 0 0 0 0 0 0 0 0 0 0 0 0 0 0.25 0"/>
<feBlend mode="normal" in2="BackgroundImageFix" result="effect1_dropShadow_2_37"/>
<feBlend mode="normal" in="SourceGraphic" in2="effect1_dropShadow_2_37" result="shape"/>
</filter>
<filter id="filter5_d_2_37" x="14.0374" y="5.90146" width="18.2126" height="27.4288" filterUnits="userSpaceOnUse" color-interpolation-filters="sRGB">
<feFlood flood-opacity="0" result="BackgroundImageFix"/>
<feColorMatrix in="SourceAlpha" type="matrix" values="0 0 0 0 0 0 0 0 0 0 0 0 0 0 0 0 0 0 127 0" result="hardAlpha"/>
<feOffset dy="4"/>
<feGaussianBlur stdDeviation="2"/>
<feComposite in2="hardAlpha" operator="out"/>
<feColorMatrix type="matrix" values="0 0 0 0 0 0 0 0 0 0 0 0 0 0 0 0 0 0 0.25 0"/>
<feBlend mode="normal" in2="BackgroundImageFix" result="effect1_dropShadow_2_37"/>
<feBlend mode="normal" in="SourceGraphic" in2="effect1_dropShadow_2_37" result="shape"/>
</filter>
<linearGradient id="paint0_linear_2_37" x1="17.7468" y1="8.3093" x2="17.7468" y2="27.7381" gradientUnits="userSpaceOnUse">
<stop stop-color="#CF2015"/>
<stop offset="0.0001" stop-color="#CF6E15" stop-opacity="0.723958"/>
<stop offset="1" stop-color="#CF2015" stop-opacity="0"/>
</linearGradient>
<linearGradient id="paint1_linear_2_37" x1="18.9092" y1="12.4608" x2="18.9092" y2="31.8896" gradientUnits="userSpaceOnUse">
<stop stop-color="#CF2015"/>
<stop offset="0.0001" stop-color="#CF6E15" stop-opacity="0.723958"/>
<stop offset="1" stop-color="#CF2015" stop-opacity="0"/>
</linearGradient>
<linearGradient id="paint2_linear_2_37" x1="18.9092" y1="5.90146" x2="18.9092" y2="25.3303" gradientUnits="userSpaceOnUse">
<stop stop-color="#CF2015"/>
<stop offset="0.0001" stop-color="#CF6E15" stop-opacity="0.723958"/>
<stop offset="1" stop-color="#CF2015" stop-opacity="0"/>
</linearGradient>
<linearGradient id="paint3_linear_2_37" x1="20.0716" y1="10.0529" x2="20.0716" y2="29.4817" gradientUnits="userSpaceOnUse">
<stop stop-color="#CF2015"/>
<stop offset="0.0001" stop-color="#CF6E15" stop-opacity="0.723958"/>
<stop offset="1" stop-color="#CF2015" stop-opacity="0"/>
</linearGradient>
<linearGradient id="paint4_linear_2_37" x1="20.2377" y1="3.74271" x2="20.2377" y2="23.1715" gradientUnits="userSpaceOnUse">
<stop stop-color="#CF2015"/>
<stop offset="0.0001" stop-color="#CF6E15" stop-opacity="0.723958"/>
<stop offset="1" stop-color="#CF2015" stop-opacity="0"/>
</linearGradient>
<linearGradient id="paint5_linear_2_37" x1="21.4001" y1="7.89417" x2="21.4001" y2="27.323" gradientUnits="userSpaceOnUse">
<stop stop-color="#CF2015"/>
<stop offset="0.0001" stop-color="#CF6E15" stop-opacity="0.723958"/>
<stop offset="1" stop-color="#CF2015" stop-opacity="0"/>
</linearGradient>
<linearGradient id="paint6_linear_2_37" x1="21.9813" y1="1.75" x2="21.9813" y2="21.1788" gradientUnits="userSpaceOnUse">
<stop stop-color="#CF2015"/>
<stop offset="0.0001" stop-color="#CF6E15" stop-opacity="0.723958"/>
<stop offset="1" stop-color="#CF2015" stop-opacity="0"/>
</linearGradient>
<linearGradient id="paint7_linear_2_37" x1="23.1437" y1="5.90146" x2="23.1437" y2="25.3303" gradientUnits="userSpaceOnUse">
<stop stop-color="#CF2015"/>
<stop offset="0.0001" stop-color="#CF6E15" stop-opacity="0.723958"/>
<stop offset="1" stop-color="#CF2015" stop-opacity="0"/>
</linearGradient>
</defs>
</svg>
